<mxfile host="Electron" modified="2023-10-04T11:20:57.751Z" agent="5.0 (Windows NT 10.0; Win64; x64) AppleWebKit/537.36 (KHTML, like Gecko) draw.io/20.3.0 Chrome/104.0.5112.114 Electron/20.1.3 Safari/537.36" etag="HGLEltvMJ_iRFPDU_Iv9" compressed="false" version="20.3.0" type="device">
  <diagram name="PE042A" id="FUV1NY2Gja_FUqsyNEjz">
    <mxGraphModel dx="782" dy="531" grid="1" gridSize="2" guides="1" tooltips="1" connect="1" arrows="1" fold="1" page="1" pageScale="1" pageWidth="1169" pageHeight="827" math="0" shadow="0">
      <root>
        <mxCell id="zUVr1S0kb_XLgZNizgyp-0" />
        <mxCell id="zUVr1S0kb_XLgZNizgyp-133" value="Label" style="" parent="zUVr1S0kb_XLgZNizgyp-0" />
        <object label="%LabelLines%&amp;nbsp; &amp;nbsp; &amp;nbsp; &amp;nbsp; &amp;nbsp; &amp;nbsp;%LabelIndex%" placeholders="1" LabelLines="1" LabelIndex="A" id="zUVr1S0kb_XLgZNizgyp-134">
          <mxCell style="rounded=0;whiteSpace=wrap;html=1;fillColor=none;strokeColor=#FF0000;fontColor=#FF0000;fontSize=10;align=left;noLabel=0;" parent="zUVr1S0kb_XLgZNizgyp-133" vertex="1">
            <mxGeometry x="614" y="336" width="80" height="16" as="geometry" />
          </mxCell>
        </object>
        <object label="Symbol" Width="39" Height="10" UoM="mm" id="zUVr1S0kb_XLgZNizgyp-137">
          <mxCell style="" parent="zUVr1S0kb_XLgZNizgyp-0" />
        </object>
        <mxCell id="zUVr1S0kb_XLgZNizgyp-140" value="" style="endArrow=none;html=1;rounded=0;exitX=0.99;exitY=0.125;exitDx=0;exitDy=0;exitPerimeter=0;" parent="zUVr1S0kb_XLgZNizgyp-137" edge="1">
          <mxGeometry width="50" height="50" relative="1" as="geometry">
            <mxPoint x="398.9999999999999" y="192" as="sourcePoint" />
            <mxPoint x="944" y="192" as="targetPoint" />
          </mxGeometry>
        </mxCell>
        <mxCell id="zUVr1S0kb_XLgZNizgyp-141" value="" style="endArrow=none;html=1;rounded=0;exitX=1.005;exitY=0.874;exitDx=0;exitDy=0;exitPerimeter=0;" parent="zUVr1S0kb_XLgZNizgyp-137" edge="1">
          <mxGeometry width="50" height="50" relative="1" as="geometry">
            <mxPoint x="399.99999999999994" y="320.0239999999999" as="sourcePoint" />
            <mxPoint x="944" y="320" as="targetPoint" />
          </mxGeometry>
        </mxCell>
        <mxCell id="XLpx1rje2Tpho_ThSgxB-1" value="" style="curved=1;endArrow=none;html=1;rounded=0;endFill=0;" parent="zUVr1S0kb_XLgZNizgyp-137" edge="1">
          <mxGeometry width="50" height="50" relative="1" as="geometry">
            <mxPoint x="944" y="192" as="sourcePoint" />
            <mxPoint x="943" y="320" as="targetPoint" />
            <Array as="points">
              <mxPoint x="960" y="192" />
              <mxPoint x="949" y="288" />
              <mxPoint x="793" y="256" />
              <mxPoint x="948" y="223" />
              <mxPoint x="960" y="320" />
            </Array>
          </mxGeometry>
        </mxCell>
        <mxCell id="Y3WWGntvLIbaLsErZBE9-2" value="" style="endArrow=none;html=1;rounded=0;" parent="zUVr1S0kb_XLgZNizgyp-137" edge="1">
          <mxGeometry width="50" height="50" relative="1" as="geometry">
            <mxPoint x="400" y="336" as="sourcePoint" />
            <mxPoint x="399" y="176" as="targetPoint" />
          </mxGeometry>
        </mxCell>
        <mxCell id="Y3WWGntvLIbaLsErZBE9-4" value="" style="verticalLabelPosition=bottom;verticalAlign=top;html=1;shape=mxgraph.basic.half_circle;fillColor=none;rotation=90;" parent="zUVr1S0kb_XLgZNizgyp-137" vertex="1">
          <mxGeometry x="296.38" y="231.63" width="127.5" height="48.25" as="geometry" />
        </mxCell>
        <mxCell id="Y3WWGntvLIbaLsErZBE9-1" value="" style="endArrow=none;html=1;rounded=0;" parent="zUVr1S0kb_XLgZNizgyp-137" edge="1">
          <mxGeometry width="50" height="50" relative="1" as="geometry">
            <mxPoint x="384" y="336" as="sourcePoint" />
            <mxPoint x="384" y="176" as="targetPoint" />
          </mxGeometry>
        </mxCell>
        <mxCell id="zUVr1S0kb_XLgZNizgyp-124" value="Connection" style="" parent="zUVr1S0kb_XLgZNizgyp-0" />
        <object label="Connection" PipingConnector="Y" LabelConnector="N" SignalConnector="N" Direction="180" AuxiliaryConnector="N" id="zUVr1S0kb_XLgZNizgyp-127">
          <mxCell style="vsdxID=1407;fillColor=none;gradientColor=none;shape=stencil(rVFbDsIgEDwNnyQU4glqvcfGblsilmZBS28vZGMsxg9j/JvZmX1kR5g2TLCg0CpE8hdcbR8nYY5CaztPSDZmJEwnTDt4wpH8be6ZL1CcBV39vUxI3KdKh1YbswPTEzuBzlmiVGmKau9zUKM+jlJJQrJBko8QrZ+rrQ5oRJnXyMHBWElhRVx25ebnw/5zVvPFWRm83jxY5zilvf4eSy5xpKZ7AA==);strokeColor=#00FF00;strokeWidth=1;points=[[0.5,0.5,0,0,0]];labelBackgroundColor=none;rounded=0;html=1;whiteSpace=wrap;aspect=fixed;noLabel=1;snapToPoint=1;container=0;fontSize=16;" parent="zUVr1S0kb_XLgZNizgyp-124" vertex="1">
            <mxGeometry x="330" y="250" width="12" height="12" as="geometry" />
          </mxCell>
        </object>
        <mxCell id="zUVr1S0kb_XLgZNizgyp-135" value="Origo" style="locked=1;" parent="zUVr1S0kb_XLgZNizgyp-0" visible="0" />
        <object label="origo" id="zUVr1S0kb_XLgZNizgyp-136">
          <mxCell style="vsdxID=1407;fillColor=none;gradientColor=none;shape=stencil(rVFbDsIgEDwNnyQU4glqvcfGblsilmZBS28vZGMsxg9j/JvZmX1kR5g2TLCg0CpE8hdcbR8nYY5CaztPSDZmJEwnTDt4wpH8be6ZL1CcBV39vUxI3KdKh1YbswPTEzuBzlmiVGmKau9zUKM+jlJJQrJBko8QrZ+rrQ5oRJnXyMHBWElhRVx25ebnw/5zVvPFWRm83jxY5zilvf4eSy5xpKZ7AA==);strokeColor=#ff0000;strokeWidth=1;points=[[0.5,0.5,0,0,0]];labelBackgroundColor=none;rounded=0;html=1;whiteSpace=wrap;aspect=fixed;noLabel=1;snapToPoint=1;" parent="zUVr1S0kb_XLgZNizgyp-135" vertex="1">
            <mxGeometry x="332" y="252" width="7.874" height="7.87" as="geometry" />
          </mxCell>
        </object>
      </root>
    </mxGraphModel>
  </diagram>
</mxfile>
